<?xml version="1.0" encoding="iso-8859-1"?>
<!-- Generator: Adobe Illustrator 18.1.1, SVG Export Plug-In . SVG Version: 6.00 Build 0)  -->
<svg xmlns="http://www.w3.org/2000/svg" xmlns:xlink="http://www.w3.org/1999/xlink" version="1.1" id="Capa_1" x="0px" y="0px" viewBox="0 0 15.052 15.052" style="enable-background:new 0 0 15.052 15.052;" xml:space="preserve" width="512px" height="512px">
<g>
	<g>
		<path d="M15.052,7.49h-0.008c-0.021-0.406-0.184-0.82-0.409-1.13c-0.239-0.338-0.537-0.605-0.854-0.821    c-0.192-0.134-0.394-0.246-0.598-0.349c0.075-0.224,0.141-0.451,0.184-0.69c0.071-0.376,0.093-0.775,0.022-1.185    c-0.06-0.379-0.237-0.786-0.51-1.088l0.006-0.005c-0.009-0.009-0.021-0.015-0.029-0.023c-0.009-0.009-0.015-0.02-0.022-0.029    l-0.006,0.005c-0.303-0.273-0.71-0.45-1.089-0.51c-0.409-0.07-0.809-0.048-1.185,0.023c-0.238,0.042-0.467,0.108-0.69,0.183    c-0.103-0.205-0.215-0.406-0.35-0.599C9.298,0.956,9.032,0.658,8.693,0.418C8.383,0.193,7.97,0.03,7.563,0.009V0.001    c-0.013,0-0.024,0.003-0.037,0.004c-0.013,0-0.025-0.004-0.037-0.004v0.007c-0.407,0.021-0.82,0.184-1.13,0.409    C6.02,0.657,5.754,0.955,5.538,1.271C5.404,1.463,5.292,1.663,5.189,1.866C4.95,1.787,4.706,1.717,4.45,1.676    C4.076,1.61,3.68,1.596,3.28,1.673C2.912,1.737,2.542,1.914,2.253,2.186L2.249,2.182C2.237,2.194,2.228,2.207,2.217,2.219    C2.205,2.23,2.192,2.239,2.18,2.251l0.004,0.004C1.912,2.544,1.736,2.914,1.671,3.282c-0.075,0.4-0.063,0.794,0.003,1.169    C1.715,4.701,1.782,4.94,1.86,5.174c-0.227,0.113-0.45,0.238-0.662,0.39c-0.312,0.217-0.601,0.488-0.83,0.824    C0.154,6.694,0.016,7.081,0.005,7.477H0c0,0.017,0.003,0.032,0.003,0.049S0,7.558,0,7.575h0.006    c0.012,0.396,0.149,0.783,0.363,1.089c0.229,0.337,0.519,0.607,0.83,0.825C1.41,9.64,1.634,9.765,1.861,9.879    c-0.078,0.234-0.145,0.474-0.186,0.724c-0.066,0.374-0.079,0.77-0.003,1.17c0.064,0.367,0.241,0.738,0.514,1.026l-0.004,0.005    c0.011,0.012,0.025,0.021,0.036,0.032c0.012,0.011,0.021,0.024,0.032,0.036l0.004-0.004c0.289,0.272,0.659,0.448,1.027,0.514    c0.399,0.075,0.795,0.063,1.17-0.005c0.25-0.04,0.489-0.107,0.723-0.185c0.113,0.227,0.238,0.449,0.39,0.661    c0.217,0.312,0.488,0.602,0.824,0.83c0.306,0.215,0.693,0.352,1.09,0.363v0.006c0.016,0,0.032-0.003,0.048-0.003    c0.016,0,0.032,0.003,0.048,0.003v-0.006c0.396-0.012,0.784-0.148,1.089-0.363C9,14.453,9.27,14.163,9.487,13.852    c0.152-0.212,0.277-0.437,0.391-0.664c0.219,0.072,0.442,0.136,0.675,0.178c0.377,0.071,0.775,0.093,1.186,0.023    c0.378-0.061,0.785-0.237,1.088-0.51l0.006,0.005c0.009-0.009,0.015-0.021,0.023-0.028c0.009-0.009,0.02-0.015,0.028-0.023    l-0.005-0.006c0.272-0.303,0.449-0.71,0.51-1.088c0.07-0.41,0.048-0.81-0.023-1.186c-0.043-0.238-0.108-0.467-0.183-0.69    c0.204-0.103,0.405-0.215,0.598-0.349c0.317-0.217,0.615-0.483,0.854-0.822c0.226-0.31,0.388-0.724,0.409-1.13h0.008    c0-0.013-0.003-0.024-0.004-0.037C15.049,7.514,15.052,7.503,15.052,7.49z M10.666,2.424c0.619-0.07,1.231-0.006,1.607,0.357    c0.362,0.376,0.426,0.988,0.356,1.607c-0.021,0.174-0.054,0.349-0.092,0.525c-0.263-0.096-0.527-0.181-0.795-0.249    c-0.376-0.094-0.754-0.166-1.132-0.222c-0.057-0.378-0.129-0.756-0.222-1.133c-0.068-0.266-0.152-0.532-0.248-0.794    C10.316,2.478,10.492,2.446,10.666,2.424z M9.769,9.813c-0.29,0.294-0.602,0.567-0.925,0.822    c-0.452,0.061-0.908,0.094-1.364,0.094c-0.409,0.003-0.817-0.023-1.223-0.07C5.9,10.385,5.558,10.09,5.239,9.77    C4.937,9.472,4.658,9.153,4.396,8.82C4.347,8.407,4.32,7.99,4.322,7.573c0-0.456,0.034-0.912,0.093-1.363    c0.256-0.324,0.529-0.635,0.824-0.926C5.558,4.966,5.901,4.67,6.257,4.395c0.406-0.047,0.814-0.073,1.222-0.07    c0.456,0,0.912,0.034,1.363,0.093c0.324,0.256,0.635,0.53,0.926,0.824c0.311,0.312,0.6,0.645,0.869,0.993    c0.058,0.444,0.09,0.89,0.09,1.338c0.003,0.408-0.023,0.817-0.07,1.223C10.383,9.152,10.088,9.494,9.769,9.813z M10.629,9.029    c-0.061,0.438-0.148,0.87-0.261,1.295c-0.433,0.121-0.873,0.219-1.319,0.286c0.262-0.244,0.521-0.493,0.775-0.742    C10.096,9.594,10.365,9.313,10.629,9.029z M8.655,10.783c-0.354,0.268-0.724,0.511-1.105,0.731c-0.39-0.22-0.769-0.463-1.131-0.73    c0.354,0.013,0.709,0.019,1.062,0.022C7.871,10.805,8.263,10.798,8.655,10.783z M6.025,10.63c-0.45-0.062-0.895-0.153-1.331-0.271    C4.576,9.922,4.485,9.477,4.423,9.026c0.251,0.271,0.506,0.537,0.763,0.799C5.46,10.097,5.74,10.366,6.025,10.63z M4.27,8.658    c-0.272-0.361-0.521-0.74-0.745-1.131c0.224-0.39,0.472-0.768,0.745-1.128C4.255,6.791,4.249,7.183,4.247,7.573    C4.25,7.933,4.257,8.295,4.27,8.658z M3.374,7.26C3.203,6.945,3.048,6.621,2.911,6.294C2.801,6.029,2.705,5.759,2.619,5.49    c0.245-0.126,0.497-0.245,0.755-0.353c0.333-0.136,0.674-0.255,1.021-0.359C4.336,5.248,4.3,5.719,4.278,6.19    C3.965,6.534,3.663,6.891,3.374,7.26z M4.28,8.866c0.021,0.469,0.054,0.939,0.11,1.409c-0.345-0.104-0.685-0.223-1.016-0.357    c-0.258-0.107-0.51-0.227-0.755-0.353c0.085-0.27,0.182-0.538,0.291-0.804c0.138-0.327,0.293-0.65,0.463-0.966    C3.664,8.164,3.965,8.522,4.28,8.866z M4.442,6.006c0.067-0.447,0.166-0.888,0.287-1.321c0.425-0.113,0.858-0.201,1.296-0.261    C5.74,4.688,5.46,4.957,5.185,5.23C4.936,5.485,4.687,5.743,4.442,6.006z M6.419,4.27c0.362-0.268,0.741-0.51,1.13-0.73    C7.93,3.761,8.3,4.004,8.653,4.271C8.261,4.257,7.87,4.25,7.48,4.248C7.128,4.251,6.774,4.258,6.419,4.27z M9.047,4.444    c0.436,0.065,0.864,0.16,1.286,0.277c0.116,0.421,0.211,0.85,0.276,1.285c-0.258-0.278-0.52-0.55-0.785-0.818    C9.568,4.937,9.31,4.688,9.047,4.444z M10.772,8.868c0.309-0.338,0.604-0.688,0.889-1.052c0.157,0.297,0.3,0.601,0.428,0.907    c0.107,0.267,0.202,0.536,0.285,0.807c-0.256,0.136-0.52,0.263-0.791,0.377c-0.298,0.124-0.604,0.232-0.916,0.33    C10.72,9.782,10.752,9.324,10.772,8.868z M10.783,6.422c0.263,0.354,0.501,0.725,0.718,1.105    c-0.217,0.382-0.455,0.753-0.718,1.107c0.013-0.354,0.019-0.709,0.022-1.062C10.803,7.189,10.797,6.805,10.783,6.422z     M10.773,6.188c-0.021-0.458-0.056-0.916-0.112-1.373c0.313,0.098,0.622,0.208,0.922,0.333c0.271,0.114,0.536,0.241,0.792,0.377    c-0.084,0.27-0.178,0.54-0.286,0.805c-0.127,0.307-0.271,0.611-0.428,0.909C11.377,6.876,11.081,6.526,10.773,6.188z M9.529,2.679    c0.136,0.256,0.263,0.52,0.377,0.791c0.124,0.3,0.234,0.608,0.332,0.922C9.78,4.336,9.321,4.301,8.863,4.28    C8.526,3.972,8.176,3.676,7.815,3.392c0.297-0.157,0.601-0.3,0.907-0.427C8.989,2.857,9.257,2.762,9.529,2.679z M6.137,1.714    c0.388-0.486,0.867-0.875,1.389-0.883C8.048,0.84,8.527,1.228,8.915,1.714c0.104,0.134,0.202,0.274,0.297,0.42    C8.966,2.249,8.725,2.374,8.495,2.51C8.158,2.713,7.837,2.933,7.526,3.164C7.2,2.921,6.865,2.688,6.509,2.478    C6.295,2.352,6.071,2.236,5.843,2.129C5.937,1.986,6.034,1.846,6.137,1.714z M5.545,2.64c0.25,0.081,0.5,0.17,0.747,0.273    c0.328,0.138,0.65,0.292,0.967,0.463C6.888,3.665,6.53,3.967,6.186,4.281c-0.457,0.02-0.914,0.052-1.37,0.105    c0.097-0.312,0.207-0.618,0.33-0.916C5.267,3.185,5.4,2.907,5.545,2.64z M2.674,2.676C3.089,2.32,3.725,2.268,4.349,2.349    C4.542,2.377,4.736,2.417,4.93,2.464C4.826,2.743,4.736,3.026,4.663,3.31C4.57,3.685,4.499,4.061,4.442,4.437    c-0.408,0.059-0.815,0.135-1.22,0.238C2.966,4.741,2.711,4.824,2.459,4.917C2.415,4.728,2.376,4.54,2.348,4.351    C2.266,3.726,2.318,3.09,2.674,2.676z M2.099,9.274C1.928,9.169,1.761,9.059,1.603,8.942c-0.5-0.384-0.913-0.87-0.954-1.415    c0.042-0.545,0.455-1.031,0.954-1.415C1.76,5.995,1.927,5.885,2.098,5.78c0.116,0.251,0.24,0.497,0.378,0.731    C2.687,6.865,2.92,7.2,3.163,7.527C2.92,7.853,2.687,8.189,2.476,8.544C2.339,8.778,2.214,9.023,2.099,9.274z M4.349,12.705    c-0.625,0.082-1.26,0.03-1.675-0.325c-0.356-0.415-0.408-1.051-0.326-1.676c0.027-0.188,0.066-0.377,0.111-0.566    c0.252,0.093,0.507,0.175,0.763,0.242c0.404,0.103,0.809,0.178,1.215,0.236c0.059,0.406,0.134,0.812,0.237,1.215    c0.066,0.257,0.149,0.511,0.242,0.764C4.727,12.639,4.538,12.677,4.349,12.705z M5.488,12.434    c-0.126-0.246-0.245-0.498-0.353-0.756c-0.134-0.33-0.254-0.67-0.357-1.016c0.469,0.057,0.938,0.09,1.406,0.11    c0.346,0.314,0.704,0.617,1.074,0.906c-0.316,0.17-0.639,0.325-0.966,0.463C6.027,12.252,5.757,12.348,5.488,12.434z M8.941,13.45    c-0.384,0.499-0.871,0.912-1.415,0.954c-0.544-0.042-1.031-0.455-1.415-0.954c-0.118-0.157-0.227-0.324-0.332-0.496    c0.251-0.114,0.497-0.239,0.73-0.378c0.355-0.211,0.69-0.442,1.016-0.686c0.312,0.231,0.632,0.451,0.968,0.654    c0.25,0.148,0.512,0.284,0.781,0.406C9.169,13.124,9.059,13.292,8.941,13.45z M9.585,12.393c-0.289-0.086-0.577-0.188-0.862-0.304    c-0.307-0.127-0.61-0.271-0.907-0.427c0.361-0.285,0.712-0.581,1.049-0.889c0.47-0.021,0.941-0.059,1.412-0.117    c-0.104,0.348-0.225,0.688-0.359,1.021C9.815,11.923,9.703,12.161,9.585,12.393z M12.272,12.274    c-0.376,0.362-0.988,0.427-1.606,0.356c-0.17-0.021-0.34-0.052-0.51-0.088c0.084-0.235,0.16-0.473,0.222-0.712    c0.104-0.404,0.179-0.813,0.238-1.22c0.376-0.057,0.752-0.128,1.127-0.221c0.267-0.068,0.532-0.152,0.795-0.248    c0.038,0.176,0.069,0.351,0.091,0.524C12.699,11.286,12.634,11.898,12.272,12.274z M13.339,8.916    c-0.134,0.104-0.274,0.202-0.42,0.297c-0.115-0.246-0.24-0.487-0.377-0.717c-0.202-0.336-0.423-0.657-0.654-0.969    c0.231-0.311,0.452-0.632,0.655-0.968c0.137-0.23,0.261-0.471,0.377-0.717c0.145,0.094,0.285,0.192,0.419,0.295    c0.486,0.388,0.874,0.867,0.884,1.389C14.213,8.05,13.826,8.528,13.339,8.916z" fill="#933EC5"/>
		<circle cx="7.526" cy="7.527" r="1.62" fill="#933EC5"/>
	</g>
</g>
<g>
</g>
<g>
</g>
<g>
</g>
<g>
</g>
<g>
</g>
<g>
</g>
<g>
</g>
<g>
</g>
<g>
</g>
<g>
</g>
<g>
</g>
<g>
</g>
<g>
</g>
<g>
</g>
<g>
</g>
</svg>
