<?xml version="1.0" encoding="utf-8"?>
<!-- Generator: Adobe Illustrator 22.0.1, SVG Export Plug-In . SVG Version: 6.00 Build 0)  -->
<svg version="1.1" id="Layer_1" xmlns="http://www.w3.org/2000/svg" xmlns:xlink="http://www.w3.org/1999/xlink" x="0px" y="0px"
	 viewBox="0 0 1920 282.991" style="enable-background:new 0 0 1920 282.991;" xml:space="preserve">
<style type="text/css">
	.st0{fill:#E4E6E5;}
	.st1{fill:#4E9DDD;}
	.st2{fill:#2E71AB;}
	.st3{fill:#46C6BB;}
</style>
<g>
	<path class="st0" d="M1792.287,77.125c-155.84-36.879-317.656-57.018-477.756-43.303c-71.224,6.102-137.774,22.837-206.761,40.24
		c-76.845,19.385-155.236,32.467-234.132,39.849c-135.082,12.639-271.303,12.096-406.698,5.264
		c-111.379-5.62-222.548-15.764-333.188-29.711C93.164,84.348,52.538,78.972,12.148,72.366v21.556
		c35.352,5.325,70.802,10.058,106.251,14.66c93.528,12.142,187.293,22.565,281.244,30.837
		c111.084,9.781,222.593,16.871,334.141,17.281c77.882,0.286,156.008-3.567,232.87-16.726
		c76.398-13.08,150.511-37.327,226.136-54.223c94.549-21.124,193.183-40.498,290.417-35.187
		c86.309,4.715,169.481,31.317,249.69,61.949c39.604,15.125,79.434,29.481,118.983,44.901
		c26.642,10.388,52.547,22.068,78.673,33.358v-75.581C1884.937,100.859,1838.818,88.137,1792.287,77.125z"/>
	<path class="st1" d="M1780.278,70.116c-155.84-36.879-317.656-57.018-477.756-43.303c-71.224,6.102-137.774,22.837-206.761,40.24
		c-76.846,19.385-155.236,32.467-234.132,39.849c-135.082,12.639-271.303,12.096-406.698,5.264
		c-111.379-5.62-222.548-15.764-333.188-29.711C81.155,77.339,40.529,71.963,0.138,65.356v21.556
		c35.352,5.325,70.802,10.058,106.251,14.66c93.528,12.142,187.293,22.565,281.244,30.837
		c111.084,9.781,222.593,16.871,334.141,17.281c77.882,0.286,156.008-3.567,232.87-16.726
		c76.398-13.08,150.511-37.327,226.136-54.223c94.549-21.124,193.183-40.498,290.417-35.187
		c86.309,4.715,169.481,31.317,249.69,61.949c39.604,15.125,79.434,29.481,118.983,44.901
		c26.642,10.388,52.547,22.068,78.673,33.358v-75.581C1872.928,93.85,1826.809,81.128,1780.278,70.116z"/>
	<path class="st2" d="M475.93,116.165c135.396,6.832,271.616,7.375,406.699-5.264c78.896-7.382,157.286-20.463,234.132-39.849
		c68.987-17.403,135.537-34.139,206.761-40.24c160.099-13.716,321.916,6.424,477.756,43.303
		c46.531,11.011,92.65,23.734,138.265,38.066V4.591H21.138v64.764c40.391,6.606,81.017,11.982,121.604,17.099
		C253.383,100.401,364.552,110.544,475.93,116.165z"/>
	<path class="st3" d="M454.93,112.167c135.396,6.832,271.616,7.375,406.698-5.264c78.896-7.382,157.287-20.463,234.132-39.849
		c68.987-17.403,135.537-34.139,206.761-40.24c160.099-13.716,321.916,6.424,477.756,43.303
		c46.531,11.011,92.65,23.734,138.265,38.066V0.593H0.138v64.764c40.391,6.606,81.017,11.982,121.604,17.099
		C232.383,96.403,343.552,106.546,454.93,112.167z"/>
</g>
</svg>
